<svg id="Capa_1" enable-background="new 0 0 512 512" height="512" viewBox="0 0 512 512" width="512" xmlns="http://www.w3.org/2000/svg"><g id="XMLID_429_"><path id="XMLID_440_" d="m158 497c0 8.284 6.716 15 15 15h166c8.284 0 15-6.716 15-15v-45.25h-196z"/><path id="XMLID_441_" d="m339 150.5h-166c-8.284 0-15 6.716-15 15v15.25h196v-15.25c0-8.284-6.716-15-15-15z"/><path id="XMLID_442_" d="m158 210.75h196v211h-196z"/><path id="XMLID_448_" d="m331.25 91.125c0-16.773-13.447-30.455-30.125-30.856v-45.269c0-8.284-6.716-15-15-15h-60.25c-8.284 0-15 6.716-15 15v45.269c-16.678.401-30.125 14.083-30.125 30.856v29.375h150.5z"/></g></svg>