<svg id="Capa_1" enable-background="new 0 0 512 512" height="512" viewBox="0 0 512 512" width="512" xmlns="http://www.w3.org/2000/svg"><g><path d="m314.478 70h-116.956c-31.962 18.908-53.207 52.466-56.161 90h229.278c-2.954-37.534-24.199-71.092-56.161-90z"/><path d="m141 263.333h230v43.334h-230z"/><path d="m141 336.667h230v43.333h-230z"/><path d="m141 466.309c0 12.241 5.036 24.202 13.818 32.817 8.69 8.526 20.058 13.1 32.056 12.865 13.713-.262 25.984-6.786 34.083-16.789 8.256 10.237 20.897 16.798 35.043 16.798s26.787-6.561 35.043-16.798c8.099 10.003 20.37 16.527 34.083 16.789 11.987.228 23.365-4.34 32.056-12.865 8.782-8.615 13.818-20.576 13.818-32.817v-56.309h-230z"/><path d="m211 0h90v40h-90z"/><path d="m141 190h230v43.333h-230z"/></g></svg>